PathFileType	4	(X/Y/Z)	/Users/itak/Documents/Research/Walk-IL/dataset/trc/00249_00009.trc
DataRate	CameraRate	NumFrames	NumMarkers	Units	OrigDataRate	OrigDataStartFrame	OrigNumFrames
100.000000	100.000000	4	55	mm	100.000000	369	493
Frame#	Time	RPSI			LPSI			L3			STRN			T10			C7			CLAV			RBAK			LBAK			LSHO			LUPA			LAEL			LAOL			LWTS			LWPS			LFRA			LIFD			LHPS			LHTS			RSHO			RUPA			RAEL			RAOL			RWTS			RWPS			RFRA			RIFD			RHTS			RHPS			RBHD			LFHD			RFHD			LBHD			LHIP			RHIP			RASI			LASI			LKNE			LTHI			LANK			LTIP			LTOE			LMT1			LMT5			LHEE			RKNE			RTHI			RANK			RTIP			RTOE			RMT1			RMT5			RHEE			*53			*54			
		X1	Y1	Z1	X2	Y2	Z2	X3	Y3	Z3	X4	Y4	Z4	X5	Y5	Z5	X6	Y6	Z6	X7	Y7	Z7	X8	Y8	Z8	X9	Y9	Z9	X10	Y10	Z10	X11	Y11	Z11	X12	Y12	Z12	X13	Y13	Z13	X14	Y14	Z14	X15	Y15	Z15	X16	Y16	Z16	X17	Y17	Z17	X18	Y18	Z18	X19	Y19	Z19	X20	Y20	Z20	X21	Y21	Z21	X22	Y22	Z22	X23	Y23	Z23	X24	Y24	Z24	X25	Y25	Z25	X26	Y26	Z26	X27	Y27	Z27	X28	Y28	Z28	X29	Y29	Z29	X30	Y30	Z30	X31	Y31	Z31	X32	Y32	Z32	X33	Y33	Z33	X34	Y34	Z34	X35	Y35	Z35	X36	Y36	Z36	X37	Y37	Z37	X38	Y38	Z38	X39	Y39	Z39	X40	Y40	Z40	X41	Y41	Z41	X42	Y42	Z42	X43	Y43	Z43	X44	Y44	Z44	X45	Y45	Z45	X46	Y46	Z46	X47	Y47	Z47	X48	Y48	Z48	X49	Y49	Z49	X50	Y50	Z50	X51	Y51	Z51	X52	Y52	Z52	X53	Y53	Z53	X54	Y54	Z54	X55	Y55	Z55	

370	3.69	-80.72908782958984	1010.445556640625	739.9345092773438	37.07566833496094	1020.235595703125	722.5811767578125	-1.815922260284424	1097.326049804688	716.9562377929688	20.48750877380371	1309.88720703125	953.3786010742188	-6.837021827697754	1222.244018554688	707.618896484375	-2.846572637557983	1488.93505859375	739.193359375	11.23109531402588	1423.387451171875	914.59765625	-77.60951232910156	1339.679565429688	688.4511108398438	106.1889801025391	1452.180541992188	711.8247680664062	167.55078125	1462.44677734375	795.9505615234375	246.2372894287109	1344.401000976562	772.3342895507812	284.2041931152344	1140.966674804688	814.7871704101562	237.9125518798828	1111.7890625	745.837646484375	230.7944793701172	929.0233154296875	943.50390625	313.857421875	914.4542236328125	931.3936157226562	302.2334289550781	1041.508666992188	857.2017822265625	246.957763671875	748.5361328125	997.059814453125	315.6242980957031	836.3241577148438	974.9862060546875	254.9907379150391	846.4072265625	1008.158081054688	-166.7814483642578	1454.280883789062	814.262939453125	-234.9873352050781	1389.028076171875	802.7086181640625	-267.7496032714844	1108.780029296875	782.1563110351562	-177.0614471435547	1104.263671875	751.7088623046875	-225.3117980957031	890.38720703125	910.4813842773438	-291.03564453125	878.4154052734375	858.1123657226562	-280.0539245605469	1040.958984375	806.68359375	-217.7610931396484	700.517333984375	917.67578125	-241.9013824462891	769.397705078125	948.2913818359375	-293.2519836425781	770.6507568359375	896.4389038085938	-54.69553375244141	1652.630493164062	782.111083984375	54.67512512207031	1700.2294921875	975.5921020507812	-44.8310546875	1695.640747070312	983.031982421875	81.21923065185547	1664.7734375	816.8466186523438	194.5263061523438	966.2925415039062	799.6078491210938	-166.6866302490234	981.6386108398438	852.2728271484375	-116.5006561279297	1028.164672851562	941.060546875	163.4326019287109	1015.045532226562	906.9371337890625	161.2098693847656	482.2106323242188	805.420166015625	184.994873046875	626.6514282226562	814.2191162109375	57.62263488769531	108.3495407104492	486.8641052246094	121.4416732788086	311.30126953125	647.39697265625	62.37937927246094	38.53924560546875	679.7376708984375	3.29006552696228	52.84830093383789	639.78662109375	103.6697769165039	41.37007904052734	581.2122192382812	-3.3608717918396	154.7412719726562	459.7582702636719	-91.76789855957031	519.9121704101562	1031.879760742188	-155.0398559570312	775.835205078125	966.4586791992188	-31.06770706176758	34.47849655151367	1039.581787109375	-63.64171981811523	403.0995483398438	1063.475952148438	12.37580585479736	45.2449836730957	1251.307006835938	54.77121734619141	43.1812629699707	1195.704467773438	-56.62759399414062	36.63793182373047	1147.560913085938	29.1149730682373	34.42034530639648	978.0596313476562	nan	nan	nan	nan	nan	nan	
371	3.7	-80.21509552001953	1011.94677734375	747.7096557617188	37.67689514160156	1021.487060546875	730.6478271484375	-1.359458446502686	1098.565307617188	724.6652221679688	20.34531021118164	1311.645751953125	960.4320068359375	-6.46043062210083	1223.382080078125	714.979248046875	-2.823666334152222	1490.129760742188	745.7885131835938	11.09920406341553	1425.0283203125	921.3037719726562	-77.31813812255859	1340.671264648438	695.2405395507812	106.2010192871094	1453.492797851562	718.7297973632812	167.6189575195312	1464.126831054688	802.788330078125	246.1066131591797	1345.864624023438	778.3646850585938	283.0973510742188	1141.6103515625	817.6343994140625	235.2675018310547	1113.720336914062	749.2123413085938	231.9687805175781	927.0081787109375	943.1417846679688	314.62060546875	912.3890991210938	928.5399780273438	301.7578430175781	1041.24267578125	857.5762329101562	248.8662719726562	745.5738525390625	992.7322998046875	317.2460632324219	833.459716796875	970.49609375	257.7513427734375	843.1715087890625	1005.541809082031	-166.8129730224609	1455.506713867188	820.486328125	-234.9635620117188	1390.201904296875	808.9620361328125	-267.2899780273438	1109.782348632812	789.243408203125	-176.4992065429688	1105.154296875	759.4994506835938	-225.6417694091797	892.418701171875	919.5529174804688	-290.6849670410156	879.7989501953125	866.647705078125	-279.6509094238281	1042.082641601562	814.1957397460938	-217.7508239746094	702.7098388671875	928.6874389648438	-242.4163208007812	771.8900146484375	958.4816284179688	-293.1449584960938	772.4901733398438	906.125	-55.10441589355469	1654.061279296875	788.4757080078125	53.98209762573242	1701.726318359375	982.0801391601562	-45.53952026367188	1697.001586914062	989.4288940429688	80.7657470703125	1666.336791992188	823.3623046875	194.7163391113281	967.4490966796875	808.1343994140625	-166.7382202148438	983.573486328125	859.7127685546875	-116.740348815918	1030.05224609375	948.65283203125	163.2226257324219	1016.327026367188	914.9986572265625	165.6522369384766	482.9565124511719	818.0764770507812	187.8271942138672	627.7037963867188	825.5172119140625	61.61211013793945	115.8093490600586	492.1055908203125	125.8049163818359	314.9248657226562	657.6099853515625	62.89969253540039	38.08573532104492	680.3961791992188	4.288865089416504	54.64880752563477	641.6846313476562	105.1487350463867	43.52440643310547	583.8250122070312	1.655574321746826	164.1341552734375	466.5936889648438	-91.51231384277344	519.9959106445312	1035.64013671875	-154.9506988525391	776.7593994140625	973.1104736328125	-30.91850280761719	34.582763671875	1039.725708007812	-63.49239730834961	403.0121154785156	1066.2236328125	12.71783065795898	45.07070541381836	1251.379272460938	54.98616790771484	42.98297882080078	1195.783935546875	-56.54128646850586	36.75153732299805	1147.580322265625	29.14956092834473	34.41408157348633	978.07421875	nan	nan	nan	nan	nan	nan	
372	3.71	-79.80799102783203	1013.564880371094	755.2989501953125	38.17587280273438	1022.835754394531	738.457763671875	-1.033401250839233	1099.762084960938	732.2972412109375	20.19585609436035	1313.347778320312	967.4187622070312	-6.209109306335449	1224.468994140625	722.2727661132812	-2.811168670654297	1491.2958984375	752.33642578125	10.98821926116943	1426.610595703125	927.9649047851562	-77.06355285644531	1341.64208984375	701.9846801757812	106.1641235351562	1454.714477539062	725.5443115234375	167.6963195800781	1465.692993164062	809.4905395507812	245.9841003417969	1347.253295898438	784.1470947265625	282.1959228515625	1142.284912109375	820.2269287109375	232.8880767822266	1115.623168945312	752.3758544921875	233.2576599121094	925.2353515625	942.68359375	315.4362182617188	910.57568359375	925.5658569335938	301.4314575195312	1041.101196289062	857.7716674804688	250.7470855712891	742.9527587890625	988.3739624023438	318.8534851074219	830.900634765625	965.8870239257812	260.5870971679688	840.2474365234375	1002.79931640625	-166.8501739501953	1456.728637695312	826.6782836914062	-234.9553833007812	1391.411499023438	815.1629638671875	-267.032470703125	1110.841796875	796.2102661132812	-176.1720123291016	1106.080078125	767.0953979492188	-225.9713745117188	894.64892578125	928.6533813476562	-290.3436584472656	881.2491455078125	875.2572021484375	-279.4298095703125	1043.23193359375	821.6327514648438	-217.61474609375	705.1734008789062	940.1258544921875	-242.8194274902344	774.6408081054688	968.8863525390625	-292.905029296875	774.4341430664062	916.021240234375	-55.46052169799805	1655.424926757812	794.7528686523438	53.30591583251953	1703.241333007812	988.46875	-46.25754547119141	1698.383422851562	995.6969604492188	80.35595703125	1667.86181640625	829.8016967773438	194.8064117431641	968.5839233398438	816.267822265625	-166.7574920654297	985.3309326171875	867.0184936523438	-116.9479446411133	1031.762329101562	956.1112670898438	163.0347137451172	1017.634460449219	922.7752075195312	170.03369140625	483.7056274414062	830.8368530273438	190.6292572021484	628.765380859375	836.7228393554688	65.88646697998047	123.3765869140625	497.9070739746094	130.2734527587891	318.423095703125	668.25048828125	63.77531814575195	37.5155143737793	681.8007202148438	5.649328708648682	56.70963287353516	644.0484008789062	106.9287643432617	46.11823272705078	586.9351196289062	6.999609470367432	173.4092864990234	473.9027099609375	-91.31446075439453	520.0154418945312	1038.858276367188	-154.8142547607422	777.5747680664062	979.27001953125	-30.77084732055664	34.63629150390625	1039.821899414062	-63.39756011962891	402.883544921875	1068.513549804688	12.96660423278809	45.01813888549805	1251.404418945312	55.14121627807617	42.86343765258789	1195.814208984375	-56.48246383666992	36.83209991455078	1147.57666015625	29.20566177368164	34.39937210083008	978.0770874023438	nan	nan	nan	nan	nan	nan	
373	3.72	-79.46643829345703	1015.276245117188	762.6566162109375	38.60577392578125	1024.251953125	745.977783203125	-0.7999157309532166	1100.900512695312	739.806640625	20.05750274658203	1314.966186523438	974.3287353515625	-6.061333179473877	1225.501708984375	729.4838256835938	-2.819716930389404	1492.426879882812	758.8422241210938	10.90097522735596	1428.113647460938	934.5784912109375	-76.85266876220703	1342.582275390625	708.6837158203125	106.0666885375977	1455.845581054688	732.2586059570312	167.7815246582031	1467.138305664062	816.0475463867188	245.8570861816406	1348.556274414062	789.6752319335938	281.4833984375	1142.992553710938	822.6062622070312	230.7891845703125	1117.48388671875	755.3443603515625	234.64501953125	923.687744140625	942.1669921875	316.2997131347656	909.0195922851562	922.55615234375	301.2388305664062	1041.081420898438	857.8483276367188	252.6008605957031	740.645751953125	983.9954833984375	320.4365234375	828.6458129882812	961.2543334960938	263.4194641113281	837.6041870117188	999.964111328125	-166.8973846435547	1457.924682617188	832.8638305664062	-234.9713745117188	1392.626586914062	821.3460693359375	-266.9803161621094	1111.930908203125	803.0963745117188	-176.0743865966797	1107.01513671875	774.4949340820312	-226.2690124511719	897.037353515625	937.7752685546875	-290.02197265625	882.7479858398438	883.964599609375	-279.3912963867188	1044.384887695312	829.0283813476562	-217.3357849121094	707.8743896484375	951.8861694335938	-243.0901641845703	777.597900390625	979.4610595703125	-292.5500183105469	776.4559936523438	926.1063232421875	-55.75218200683594	1656.701171875	800.937255859375	52.65907669067383	1704.768920898438	994.74951171875	-46.95901870727539	1699.78759765625	1001.83056640625	79.99945831298828	1669.319702148438	836.1611938476562	194.8277587890625	969.662841796875	823.9928588867188	-166.7232818603516	986.8958129882812	874.150390625	-117.1024703979492	1033.27880859375	963.396484375	162.8943634033203	1018.952270507812	930.2615966796875	174.25244140625	484.4380187988281	843.7127685546875	193.3472747802734	629.8076171875	847.8544921875	70.36017608642578	130.918701171875	504.293212890625	134.7553558349609	321.7688903808594	679.2848510742188	65.18144226074219	36.87980270385742	684.1795043945312	7.530149936676025	59.10300445556641	647.0916137695312	109.0732879638672	49.15649795532227	590.6631469726562	12.51566314697266	182.3906097412109	481.6799926757812	-91.17181396484375	520.0205688476562	1041.704345703125	-154.6203002929688	778.333984375	984.983154296875	-30.63689804077148	34.65406799316406	1039.881591796875	-63.33356475830078	402.7428588867188	1070.491455078125	13.13988399505615	45.020263671875	1251.408081054688	55.25251770019531	42.78569793701172	1195.815551757812	-56.44936370849609	36.883544921875	1147.560791015625	29.26931762695312	34.38527679443359	978.0745849609375	nan	nan	nan	nan	nan	nan	
